<svg xmlns="http://www.w3.org/2000/svg" xmlns:xlink="http://www.w3.org/1999/xlink" width="300" height="68" viewBox="0 0 300 68">
  <defs>
    <clipPath id="clip-custom_3">
      <rect width="300" height="68"/>
    </clipPath>
  </defs>
  <g id="custom_3" data-name="custom – 3" clip-path="url(#clip-custom_3)">
    <rect width="300" height="68" fill="#fff"/>
    <text id="LICHELLE_DE_LANGE_" data-name="LICHELLE DE LANGE 
" transform="translate(150 44)" fill="#707070" font-size="39" font-family="FeltTipSenior, Felt Tip Senior"><tspan x="-145.797" y="0">LICHELLE DE LANGE</tspan><tspan y="0" font-family="BrushScriptMT, Brush Script MT"> </tspan><tspan font-family="BrushScriptMT, Brush Script MT"><tspan x="0" y="49"></tspan></tspan></text>
    <g id="Group_6" data-name="Group 6" transform="translate(154.822 17.976)">
      <path id="Path_1" data-name="Path 1" d="M100.55,71.726s.338,2.609-2.743,3.176" transform="translate(-97.807 -71.679)" fill="none" stroke="#f0f067" stroke-width="1"/>
      <path id="Path_2" data-name="Path 2" d="M100.726,79.9s.36-2.777-2.919-3.38" transform="translate(-97.807 -73.229)" fill="none" stroke="#f0f067" stroke-width="1"/>
      <path id="Path_3" data-name="Path 3" d="M101.695,71.656a3.451,3.451,0,0,0,2.968,3.287c-3.081.566-2.743,3.176-2.743,3.176" transform="translate(-99.065 -71.656)" fill="none" stroke="#f0f067" stroke-width="1"/>
    </g>
    <g id="Group_1" data-name="Group 1" transform="translate(129.998 8.667)">
      <path id="Path_1-2" data-name="Path 1" d="M105.593,71.726s.96,7.406-7.786,9.015" transform="translate(-97.807 -71.592)" fill="none" stroke="#f0f067" stroke-width="1.5"/>
      <path id="Path_2-2" data-name="Path 2" d="M106.095,86.111s1.022-7.884-8.288-9.6" transform="translate(-97.807 -67.184)" fill="none" stroke="#f0f067" stroke-width="1.5"/>
      <path id="Path_3-2" data-name="Path 3" d="M101.695,71.656a9.8,9.8,0,0,0,8.426,9.332C101.374,82.6,102.334,90,102.334,90" transform="translate(-94.229 -71.656)" fill="none" stroke="#f0f067" stroke-width="1.5"/>
    </g>
    <g id="Group_4" data-name="Group 4" transform="translate(196.314 18.08)">
      <path id="Path_1-3" data-name="Path 1" d="M102.407,71.726s.567,4.375-4.6,5.326" transform="translate(-97.807 -71.647)" fill="none" stroke="#f0f067" stroke-width="1.5"/>
      <path id="Path_2-3" data-name="Path 2" d="M102.7,82.184s.6-4.658-4.9-5.668" transform="translate(-97.807 -71.003)" fill="none" stroke="#f0f067" stroke-width="1.5"/>
      <path id="Path_3-3" data-name="Path 3" d="M101.695,71.656a5.788,5.788,0,0,0,4.977,5.513c-5.167.949-4.6,5.326-4.6,5.326" transform="translate(-97.285 -71.656)" fill="none" stroke="#f0f067" stroke-width="1.5"/>
    </g>
    <g id="Group_5" data-name="Group 5" transform="translate(104.945 18.004)">
      <path id="Path_1-4" data-name="Path 1" d="M102.407,71.726s.567,4.375-4.6,5.326" transform="translate(-97.807 -71.647)" fill="none" stroke="#f0f067" stroke-width="1.5"/>
      <path id="Path_2-4" data-name="Path 2" d="M102.7,82.184s.6-4.658-4.9-5.668" transform="translate(-97.807 -71.003)" fill="none" stroke="#f0f067" stroke-width="1.5"/>
      <path id="Path_3-4" data-name="Path 3" d="M101.695,71.656a5.788,5.788,0,0,0,4.977,5.513c-5.167.949-4.6,5.326-4.6,5.326" transform="translate(-97.285 -71.656)" fill="none" stroke="#f0f067" stroke-width="1.5"/>
    </g>
    <g id="Group_8" data-name="Group 8" transform="translate(116.558 6.699)">
      <path id="Path_1-5" data-name="Path 1" d="M100.84,71.726s.374,2.885-3.034,3.512" transform="translate(-97.807 -71.674)" fill="none" stroke="#f0f067" stroke-width="1"/>
      <path id="Path_2-5" data-name="Path 2" d="M101.036,80.254s.4-3.072-3.229-3.738" transform="translate(-97.807 -72.88)" fill="none" stroke="#f0f067" stroke-width="1"/>
      <path id="Path_3-5" data-name="Path 3" d="M101.695,71.656a3.817,3.817,0,0,0,3.283,3.636c-3.408.626-3.034,3.512-3.034,3.512" transform="translate(-98.786 -71.656)" fill="none" stroke="#f0f067" stroke-width="1"/>
    </g>
    <g id="Group_10" data-name="Group 10" transform="translate(160.315 3.699)">
      <path id="Path_1-6" data-name="Path 1" d="M102.407,71.726s.567,4.375-4.6,5.326" transform="translate(-97.807 -71.647)" fill="none" stroke="#f0f067" stroke-width="1.5"/>
      <path id="Path_2-6" data-name="Path 2" d="M102.7,82.184s.6-4.658-4.9-5.668" transform="translate(-97.807 -71.003)" fill="none" stroke="#f0f067" stroke-width="1.5"/>
      <path id="Path_3-6" data-name="Path 3" d="M101.695,71.656a5.788,5.788,0,0,0,4.977,5.513c-5.167.949-4.6,5.326-4.6,5.326" transform="translate(-97.285 -71.656)" fill="none" stroke="#f0f067" stroke-width="1.5"/>
    </g>
    <g id="Group_16" data-name="Group 16" transform="translate(97.324 12.08)">
      <path id="Path_1-7" data-name="Path 1" d="M99.7,71.726a2.024,2.024,0,0,1-1.891,2.189" transform="translate(-97.807 -71.693)" fill="none" stroke="#f0f067" stroke-width="1"/>
      <path id="Path_2-7" data-name="Path 2" d="M99.819,78.846a2.154,2.154,0,0,0-2.012-2.33" transform="translate(-97.807 -74.25)" fill="none" stroke="#f0f067" stroke-width="1"/>
      <path id="Path_3-7" data-name="Path 3" d="M101.695,71.656a2.379,2.379,0,0,0,2.046,2.266,2.024,2.024,0,0,0-1.891,2.189" transform="translate(-99.882 -71.656)" fill="none" stroke="#f0f067" stroke-width="1"/>
    </g>
    <g id="Group_18" data-name="Group 18" transform="translate(187.216 8.951)">
      <path id="Path_1-8" data-name="Path 1" d="M99.622,71.726a1.943,1.943,0,0,1-1.815,2.1" transform="translate(-97.807 -71.695)" fill="none" stroke="#f0f067" stroke-width="1"/>
      <path id="Path_2-8" data-name="Path 2" d="M99.739,78.753a2.068,2.068,0,0,0-1.932-2.237" transform="translate(-97.807 -74.341)" fill="none" stroke="#f0f067" stroke-width="1"/>
      <path id="Path_3-8" data-name="Path 3" d="M101.695,71.656a2.284,2.284,0,0,0,1.964,2.175,1.943,1.943,0,0,0-1.815,2.1" transform="translate(-99.955 -71.656)" fill="none" stroke="#f0f067" stroke-width="1"/>
    </g>
    <text id="DESIGNS" transform="translate(146 62)" fill="#707070" font-size="13" font-family="ProximaSoft-Thin, Proxima Soft" font-weight="200"><tspan x="-25.987" y="0">DESIGNS</tspan></text>
    <g id="Group_19" data-name="Group 19" transform="translate(177.217 16.951)">
      <path id="Path_1-9" data-name="Path 1" d="M101.092,71.726s.405,3.125-3.285,3.8" transform="translate(-97.807 -71.669)" fill="none" stroke="#f0f067" stroke-width="1"/>
      <path id="Path_2-9" data-name="Path 2" d="M101.3,80.564s.431-3.326-3.5-4.048" transform="translate(-97.807 -72.579)" fill="none" stroke="#f0f067" stroke-width="1"/>
      <path id="Path_3-9" data-name="Path 3" d="M101.695,71.656a4.133,4.133,0,0,0,3.555,3.937c-3.69.678-3.285,3.8-3.285,3.8" transform="translate(-98.545 -71.656)" fill="none" stroke="#f0f067" stroke-width="1"/>
    </g>
    <g id="Group_20" data-name="Group 20" transform="translate(146.324 3.08)">
      <path id="Path_1-10" data-name="Path 1" d="M99.7,71.726a2.024,2.024,0,0,1-1.891,2.189" transform="translate(-97.807 -71.693)" fill="none" stroke="#f0f067" stroke-width="1"/>
      <path id="Path_2-10" data-name="Path 2" d="M99.819,78.846a2.154,2.154,0,0,0-2.012-2.33" transform="translate(-97.807 -74.25)" fill="none" stroke="#f0f067" stroke-width="1"/>
      <path id="Path_3-10" data-name="Path 3" d="M101.695,71.656a2.379,2.379,0,0,0,2.046,2.266,2.024,2.024,0,0,0-1.891,2.189" transform="translate(-99.882 -71.656)" fill="none" stroke="#f0f067" stroke-width="1"/>
    </g>
    <g id="Group_21" data-name="Group 21" transform="translate(92.324 25.08)">
      <path id="Path_1-11" data-name="Path 1" d="M99.7,71.726a2.024,2.024,0,0,1-1.891,2.189" transform="translate(-97.807 -71.693)" fill="none" stroke="#f0f067" stroke-width="1"/>
      <path id="Path_2-11" data-name="Path 2" d="M99.819,78.846a2.154,2.154,0,0,0-2.012-2.33" transform="translate(-97.807 -74.25)" fill="none" stroke="#f0f067" stroke-width="1"/>
      <path id="Path_3-11" data-name="Path 3" d="M101.695,71.656a2.379,2.379,0,0,0,2.046,2.266,2.024,2.024,0,0,0-1.891,2.189" transform="translate(-99.882 -71.656)" fill="none" stroke="#f0f067" stroke-width="1"/>
    </g>
  </g>
</svg>
